<?xml version="1.0" encoding="UTF-8" standalone="no"?>
<svg xmlns:xlink="http://www.w3.org/1999/xlink" height="6.0px" width="257.55px" xmlns="http://www.w3.org/2000/svg">
  <g transform="matrix(1, 0, 0, 1, 128.75, 3.0)">
    <path d="M119.3 -0.25 L119.3 3.0 123.95 3.0 123.95 -0.25 M123.95 3.0 L128.8 3.0 128.8 -3.0 M109.95 -0.25 L109.95 3.0 114.6 3.0 114.6 -0.25 M100.55 -0.25 L100.55 3.0 105.4 3.0 105.4 -3.0 M105.4 3.0 L109.95 3.0 M114.6 3.0 L119.3 3.0 M77.15 -0.25 L77.15 3.0 81.95 3.0 81.95 -3.0 M86.55 -0.25 L86.55 3.0 91.2 3.0 91.2 -0.25 M91.2 3.0 L95.9 3.0 95.9 -0.25 M81.95 3.0 L86.55 3.0 M67.8 -0.25 L67.8 3.0 72.45 3.0 72.45 -0.25 M58.5 -3.0 L58.5 3.0 63.1 3.0 63.1 -0.25 M63.1 3.0 L67.8 3.0 M72.45 3.0 L77.15 3.0 M95.9 3.0 L100.55 3.0 M39.8 -0.25 L39.8 3.0 44.45 3.0 44.45 -0.25 M49.15 -0.25 L49.15 3.0 53.8 3.0 53.8 -0.25 M44.45 3.0 L49.15 3.0 M16.4 -0.25 L16.4 3.0 21.05 3.0 21.05 -0.25 M25.75 -0.25 L25.75 3.0 30.45 3.0 30.45 -0.25 M30.45 3.0 L35.0 3.0 35.0 -3.0 M21.05 3.0 L25.75 3.0 M35.0 3.0 L39.8 3.0 M2.35 -0.25 L2.35 3.0 7.05 3.0 7.05 -0.25 M-2.3 -0.25 L-2.3 3.0 2.35 3.0 M7.05 3.0 L11.55 3.0 11.55 -3.0 M-16.45 -0.25 L-16.45 3.0 -11.65 3.0 -11.65 -3.0 M-11.65 3.0 L-7.0 3.0 -7.0 -0.25 M-21.15 -0.25 L-21.15 3.0 -16.45 3.0 M-7.0 3.0 L-2.3 3.0 M11.55 3.0 L16.4 3.0 M53.8 3.0 L58.5 3.0 M-44.2 -0.25 L-44.2 3.0 -39.5 3.0 -39.5 -0.25 M-30.5 -0.25 L-30.5 3.0 -25.8 3.0 -25.8 -0.25 M-34.85 -3.0 L-34.85 3.0 -30.5 3.0 M-39.5 3.0 L-34.85 3.0 M-63.1 -0.25 L-63.1 3.0 -58.3 3.0 -58.3 0.3 -58.3 -0.25 -58.3 -3.0 M-53.55 -0.25 L-53.55 3.0 -48.85 3.0 -48.85 -0.25 M-58.3 3.0 L-53.55 3.0 M-48.85 3.0 L-44.2 3.0 M-81.8 -3.0 L-81.8 3.0 -77.15 3.0 -77.15 -0.25 M-72.45 -0.25 L-72.45 3.0 -67.8 3.0 -67.8 -0.25 M-77.15 3.0 L-72.45 3.0 M-105.25 -3.0 L-105.25 3.0 -100.55 3.0 -100.55 -0.25 M-95.85 -0.25 L-95.85 3.0 -91.2 3.0 -91.2 -0.25 M-86.5 -0.25 L-86.5 3.0 -81.8 3.0 M-91.2 3.0 L-86.5 3.0 M-100.55 3.0 L-95.85 3.0 M-67.8 3.0 L-63.1 3.0 M-119.2 -0.25 L-119.2 3.0 -114.55 3.0 -114.55 -0.25 M-123.9 -0.25 L-123.9 3.0 -119.2 3.0 M-114.55 3.0 L-109.85 3.0 -109.85 -0.25 M-123.9 3.0 L-128.75 3.0 -128.75 -3.0 M-109.85 3.0 L-105.25 3.0 M-25.8 3.0 L-21.15 3.0" fill="none" stroke="#ffffff" stroke-linecap="round" stroke-linejoin="round" stroke-width="0.05"/>
  </g>
</svg>
